<svg xmlns="http://www.w3.org/2000/svg" xmlns:xlink="http://www.w3.org/1999/xlink" width="500" zoomAndPan="magnify" viewBox="0 0 375 374.999991" height="500" preserveAspectRatio="xMidYMid meet" version="1.0"><defs><g/><clipPath id="id1"><path d="M 74.929688 169.59375 L 299.929688 169.59375 L 299.929688 204.84375 L 74.929688 204.84375 Z M 74.929688 169.59375 " clip-rule="nonzero"/></clipPath><clipPath id="id2"><path d="M 230.578125 214.449219 L 300.328125 214.449219 L 300.328125 232.449219 L 230.578125 232.449219 Z M 230.578125 214.449219 " clip-rule="nonzero"/></clipPath><clipPath id="id3"><path d="M 74.929688 142.832031 L 206.179688 142.832031 L 206.179688 160.832031 L 74.929688 160.832031 Z M 74.929688 142.832031 " clip-rule="nonzero"/></clipPath></defs><g clip-path="url(#id1)"><path fill="#ff6f52" d="M 74.9375 169.59375 L 299.921875 169.59375 L 299.921875 204.84375 L 74.9375 204.84375 L 74.9375 169.59375 " fill-opacity="1" fill-rule="nonzero"/></g><g clip-path="url(#id2)"><path fill="#ff6f52" d="M 230.59375 214.449219 L 300.316406 214.449219 L 300.316406 232.449219 L 230.59375 232.449219 L 230.59375 214.449219 " fill-opacity="1" fill-rule="nonzero"/></g><g clip-path="url(#id3)"><path fill="#ff6f52" d="M 74.960938 142.832031 L 206.148438 142.832031 L 206.148438 160.832031 L 74.960938 160.832031 L 74.960938 142.832031 " fill-opacity="1" fill-rule="nonzero"/></g><g fill="#ffffff" fill-opacity="1"><g transform="translate(97.080526, 194.634554)"><g><path d="M 1.65625 -14 L 8.015625 -14 C 9.535156 -14 10.878906 -13.707031 12.046875 -13.125 C 13.210938 -12.550781 14.117188 -11.734375 14.765625 -10.671875 C 15.410156 -9.617188 15.734375 -8.394531 15.734375 -7 C 15.734375 -5.601562 15.410156 -4.375 14.765625 -3.3125 C 14.117188 -2.257812 13.210938 -1.441406 12.046875 -0.859375 C 10.878906 -0.285156 9.535156 0 8.015625 0 L 1.65625 0 Z M 7.859375 -2.65625 C 9.253906 -2.65625 10.367188 -3.046875 11.203125 -3.828125 C 12.035156 -4.609375 12.453125 -5.664062 12.453125 -7 C 12.453125 -8.332031 12.035156 -9.390625 11.203125 -10.171875 C 10.367188 -10.953125 9.253906 -11.34375 7.859375 -11.34375 L 4.90625 -11.34375 L 4.90625 -2.65625 Z M 7.859375 -2.65625 "/></g></g></g><g fill="#ffffff" fill-opacity="1"><g transform="translate(117.553996, 194.634554)"><g><path d="M 10.578125 0 L 7.875 -3.90625 L 4.90625 -3.90625 L 4.90625 0 L 1.65625 0 L 1.65625 -14 L 7.71875 -14 C 8.957031 -14 10.03125 -13.789062 10.9375 -13.375 C 11.851562 -12.96875 12.554688 -12.382812 13.046875 -11.625 C 13.546875 -10.863281 13.796875 -9.960938 13.796875 -8.921875 C 13.796875 -7.878906 13.546875 -6.976562 13.046875 -6.21875 C 12.546875 -5.46875 11.835938 -4.894531 10.921875 -4.5 L 14.0625 0 Z M 10.515625 -8.921875 C 10.515625 -9.703125 10.257812 -10.300781 9.75 -10.71875 C 9.25 -11.144531 8.515625 -11.359375 7.546875 -11.359375 L 4.90625 -11.359375 L 4.90625 -6.484375 L 7.546875 -6.484375 C 8.515625 -6.484375 9.25 -6.695312 9.75 -7.125 C 10.257812 -7.550781 10.515625 -8.148438 10.515625 -8.921875 Z M 10.515625 -8.921875 "/></g></g></g><g fill="#ffffff" fill-opacity="1"><g transform="translate(136.208187, 194.634554)"><g/></g></g><g fill="#ffffff" fill-opacity="1"><g transform="translate(145.825945, 194.634554)"><g><path d="M 6.265625 0.234375 C 5.148438 0.234375 4.078125 0.0859375 3.046875 -0.203125 C 2.015625 -0.503906 1.1875 -0.894531 0.5625 -1.375 L 1.65625 -3.8125 C 2.257812 -3.375 2.972656 -3.019531 3.796875 -2.75 C 4.628906 -2.488281 5.457031 -2.359375 6.28125 -2.359375 C 7.195312 -2.359375 7.875 -2.492188 8.3125 -2.765625 C 8.757812 -3.046875 8.984375 -3.410156 8.984375 -3.859375 C 8.984375 -4.191406 8.851562 -4.46875 8.59375 -4.6875 C 8.332031 -4.90625 8 -5.082031 7.59375 -5.21875 C 7.1875 -5.351562 6.632812 -5.5 5.9375 -5.65625 C 4.875 -5.914062 4 -6.171875 3.3125 -6.421875 C 2.632812 -6.671875 2.050781 -7.078125 1.5625 -7.640625 C 1.082031 -8.203125 0.84375 -8.945312 0.84375 -9.875 C 0.84375 -10.6875 1.0625 -11.421875 1.5 -12.078125 C 1.9375 -12.742188 2.597656 -13.269531 3.484375 -13.65625 C 4.367188 -14.039062 5.453125 -14.234375 6.734375 -14.234375 C 7.628906 -14.234375 8.503906 -14.125 9.359375 -13.90625 C 10.210938 -13.695312 10.957031 -13.394531 11.59375 -13 L 10.59375 -10.546875 C 9.300781 -11.273438 8.007812 -11.640625 6.71875 -11.640625 C 5.8125 -11.640625 5.140625 -11.492188 4.703125 -11.203125 C 4.273438 -10.910156 4.0625 -10.523438 4.0625 -10.046875 C 4.0625 -9.554688 4.3125 -9.195312 4.8125 -8.96875 C 5.3125 -8.738281 6.070312 -8.507812 7.09375 -8.28125 C 8.164062 -8.03125 9.039062 -7.773438 9.71875 -7.515625 C 10.394531 -7.265625 10.976562 -6.863281 11.46875 -6.3125 C 11.957031 -5.769531 12.203125 -5.03125 12.203125 -4.09375 C 12.203125 -3.300781 11.976562 -2.570312 11.53125 -1.90625 C 11.082031 -1.25 10.410156 -0.726562 9.515625 -0.34375 C 8.628906 0.0390625 7.546875 0.234375 6.265625 0.234375 Z M 6.265625 0.234375 "/></g></g></g><g fill="#ffffff" fill-opacity="1"><g transform="translate(162.540898, 194.634554)"><g><path d="M 22.8125 -14 L 18.234375 0 L 14.765625 0 L 11.6875 -9.484375 L 8.5 0 L 5.046875 0 L 0.4375 -14 L 3.796875 -14 L 6.953125 -4.15625 L 10.265625 -14 L 13.265625 -14 L 16.453125 -4.078125 L 19.71875 -14 Z M 22.8125 -14 "/></g></g></g><g fill="#ffffff" fill-opacity="1"><g transform="translate(189.751708, 194.634554)"><g><path d="M 12.5 -2.59375 L 12.5 0 L 1.65625 0 L 1.65625 -14 L 12.234375 -14 L 12.234375 -11.40625 L 4.875 -11.40625 L 4.875 -8.359375 L 11.375 -8.359375 L 11.375 -5.84375 L 4.875 -5.84375 L 4.875 -2.59375 Z M 12.5 -2.59375 "/></g></g></g><g fill="#ffffff" fill-opacity="1"><g transform="translate(207.126402, 194.634554)"><g><path d="M 6.765625 -5.5 L 4.875 -3.546875 L 4.875 0 L 1.65625 0 L 1.65625 -14 L 4.875 -14 L 4.875 -7.453125 L 11.078125 -14 L 14.6875 -14 L 8.875 -7.765625 L 15.015625 0 L 11.234375 0 Z M 6.765625 -5.5 "/></g></g></g><g fill="#ffffff" fill-opacity="1"><g transform="translate(225.880555, 194.634554)"><g><path d="M 10.578125 0 L 7.875 -3.90625 L 4.90625 -3.90625 L 4.90625 0 L 1.65625 0 L 1.65625 -14 L 7.71875 -14 C 8.957031 -14 10.03125 -13.789062 10.9375 -13.375 C 11.851562 -12.96875 12.554688 -12.382812 13.046875 -11.625 C 13.546875 -10.863281 13.796875 -9.960938 13.796875 -8.921875 C 13.796875 -7.878906 13.546875 -6.976562 13.046875 -6.21875 C 12.546875 -5.46875 11.835938 -4.894531 10.921875 -4.5 L 14.0625 0 Z M 10.515625 -8.921875 C 10.515625 -9.703125 10.257812 -10.300781 9.75 -10.71875 C 9.25 -11.144531 8.515625 -11.359375 7.546875 -11.359375 L 4.90625 -11.359375 L 4.90625 -6.484375 L 7.546875 -6.484375 C 8.515625 -6.484375 9.25 -6.695312 9.75 -7.125 C 10.257812 -7.550781 10.515625 -8.148438 10.515625 -8.921875 Z M 10.515625 -8.921875 "/></g></g></g><g fill="#ffffff" fill-opacity="1"><g transform="translate(244.534743, 194.634554)"><g><path d="M 1.65625 -14 L 4.90625 -14 L 4.90625 0 L 1.65625 0 Z M 1.65625 -14 "/></g></g></g><g fill="#ffffff" fill-opacity="1"><g transform="translate(255.052149, 194.634554)"><g><path d="M 4.5625 -11.359375 L 0.078125 -11.359375 L 0.078125 -14 L 12.28125 -14 L 12.28125 -11.359375 L 7.796875 -11.359375 L 7.796875 0 L 4.5625 0 Z M 4.5625 -11.359375 "/></g></g></g><g fill="#ffffff" fill-opacity="1"><g transform="translate(271.367257, 194.634554)"><g><path d="M 1.65625 -14 L 4.90625 -14 L 4.90625 0 L 1.65625 0 Z M 1.65625 -14 "/></g></g></g><g fill="#ffffff" fill-opacity="1"><g transform="translate(74.929197, 225.077006)"><g><path d="M 4.953125 -1.578125 L 1.609375 -1.578125 L 0.921875 0 L -0.015625 0 L 2.84375 -6.296875 L 3.734375 -6.296875 L 6.59375 0 L 5.65625 0 Z M 4.640625 -2.296875 L 3.28125 -5.375 L 1.921875 -2.296875 Z M 4.640625 -2.296875 "/></g></g></g><g fill="#ffffff" fill-opacity="1"><g transform="translate(85.477273, 225.077006)"><g><path d="M 3.359375 -2.171875 L 3.359375 0 L 2.46875 0 L 2.46875 -2.203125 L -0.03125 -6.296875 L 0.921875 -6.296875 L 2.9375 -2.984375 L 4.96875 -6.296875 L 5.859375 -6.296875 Z M 3.359375 -2.171875 "/></g></g></g><g fill="#ffffff" fill-opacity="1"><g transform="translate(95.260346, 225.077006)"><g><path d="M 3.5625 0.078125 C 2.71875 0.078125 2.0625 -0.160156 1.59375 -0.640625 C 1.125 -1.128906 0.890625 -1.820312 0.890625 -2.71875 L 0.890625 -6.296875 L 1.796875 -6.296875 L 1.796875 -2.75 C 1.796875 -1.40625 2.382812 -0.734375 3.5625 -0.734375 C 4.132812 -0.734375 4.570312 -0.898438 4.875 -1.234375 C 5.1875 -1.566406 5.34375 -2.070312 5.34375 -2.75 L 5.34375 -6.296875 L 6.21875 -6.296875 L 6.21875 -2.71875 C 6.21875 -1.8125 5.984375 -1.117188 5.515625 -0.640625 C 5.046875 -0.160156 4.394531 0.078125 3.5625 0.078125 Z M 3.5625 0.078125 "/></g></g></g><g fill="#ffffff" fill-opacity="1"><g transform="translate(106.339428, 225.077006)"><g><path d="M 5.15625 0 L 3.796875 -1.9375 C 3.628906 -1.925781 3.5 -1.921875 3.40625 -1.921875 L 1.84375 -1.921875 L 1.84375 0 L 0.9375 0 L 0.9375 -6.296875 L 3.40625 -6.296875 C 4.21875 -6.296875 4.859375 -6.097656 5.328125 -5.703125 C 5.796875 -5.316406 6.03125 -4.785156 6.03125 -4.109375 C 6.03125 -3.617188 5.910156 -3.203125 5.671875 -2.859375 C 5.429688 -2.515625 5.085938 -2.265625 4.640625 -2.109375 L 6.140625 0 Z M 3.375 -2.6875 C 3.945312 -2.6875 4.378906 -2.804688 4.671875 -3.046875 C 4.972656 -3.296875 5.125 -3.648438 5.125 -4.109375 C 5.125 -4.554688 4.972656 -4.898438 4.671875 -5.140625 C 4.378906 -5.390625 3.945312 -5.515625 3.375 -5.515625 L 1.84375 -5.515625 L 1.84375 -2.6875 Z M 3.375 -2.6875 "/></g></g></g><g fill="#ffffff" fill-opacity="1"><g transform="translate(116.842505, 225.077006)"><g><path d="M 6.421875 -6.296875 L 3.65625 0 L 2.765625 0 L -0.015625 -6.296875 L 0.96875 -6.296875 L 3.234375 -1.125 L 5.515625 -6.296875 Z M 6.421875 -6.296875 "/></g></g></g><g fill="#ffffff" fill-opacity="1"><g transform="translate(127.210589, 225.077006)"><g><path d="M 5.515625 -0.78125 L 5.515625 0 L 0.9375 0 L 0.9375 -6.296875 L 5.390625 -6.296875 L 5.390625 -5.515625 L 1.84375 -5.515625 L 1.84375 -3.578125 L 5 -3.578125 L 5 -2.8125 L 1.84375 -2.8125 L 1.84375 -0.78125 Z M 5.515625 -0.78125 "/></g></g></g><g fill="#ffffff" fill-opacity="1"><g transform="translate(137.200662, 225.077006)"><g><path d="M 0.9375 -6.296875 L 3.59375 -6.296875 C 4.257812 -6.296875 4.847656 -6.164062 5.359375 -5.90625 C 5.878906 -5.644531 6.28125 -5.273438 6.5625 -4.796875 C 6.851562 -4.316406 7 -3.769531 7 -3.15625 C 7 -2.53125 6.851562 -1.976562 6.5625 -1.5 C 6.28125 -1.03125 5.878906 -0.660156 5.359375 -0.390625 C 4.847656 -0.128906 4.257812 0 3.59375 0 L 0.9375 0 Z M 3.546875 -0.78125 C 4.054688 -0.78125 4.503906 -0.878906 4.890625 -1.078125 C 5.273438 -1.273438 5.570312 -1.550781 5.78125 -1.90625 C 6 -2.269531 6.109375 -2.6875 6.109375 -3.15625 C 6.109375 -3.625 6 -4.035156 5.78125 -4.390625 C 5.570312 -4.742188 5.273438 -5.019531 4.890625 -5.21875 C 4.503906 -5.414062 4.054688 -5.515625 3.546875 -5.515625 L 1.84375 -5.515625 L 1.84375 -0.78125 Z M 3.546875 -0.78125 "/></g></g></g><g fill="#ffffff" fill-opacity="1"><g transform="translate(148.594743, 225.077006)"><g><path d="M 4.953125 -1.578125 L 1.609375 -1.578125 L 0.921875 0 L -0.015625 0 L 2.84375 -6.296875 L 3.734375 -6.296875 L 6.59375 0 L 5.65625 0 Z M 4.640625 -2.296875 L 3.28125 -5.375 L 1.921875 -2.296875 Z M 4.640625 -2.296875 "/></g></g></g><g fill="#ffffff" fill-opacity="1"><g transform="translate(159.142819, 225.077006)"><g/></g></g><g fill="#ffffff" fill-opacity="1"><g transform="translate(165.523872, 225.077006)"><g><path d="M 0.9375 -6.296875 L 3.59375 -6.296875 C 4.257812 -6.296875 4.847656 -6.164062 5.359375 -5.90625 C 5.878906 -5.644531 6.28125 -5.273438 6.5625 -4.796875 C 6.851562 -4.316406 7 -3.769531 7 -3.15625 C 7 -2.53125 6.851562 -1.976562 6.5625 -1.5 C 6.28125 -1.03125 5.878906 -0.660156 5.359375 -0.390625 C 4.847656 -0.128906 4.257812 0 3.59375 0 L 0.9375 0 Z M 3.546875 -0.78125 C 4.054688 -0.78125 4.503906 -0.878906 4.890625 -1.078125 C 5.273438 -1.273438 5.570312 -1.550781 5.78125 -1.90625 C 6 -2.269531 6.109375 -2.6875 6.109375 -3.15625 C 6.109375 -3.625 6 -4.035156 5.78125 -4.390625 C 5.570312 -4.742188 5.273438 -5.019531 4.890625 -5.21875 C 4.503906 -5.414062 4.054688 -5.515625 3.546875 -5.515625 L 1.84375 -5.515625 L 1.84375 -0.78125 Z M 3.546875 -0.78125 "/></g></g></g><g fill="#ffffff" fill-opacity="1"><g transform="translate(176.917952, 225.077006)"><g><path d="M 3.78125 0.078125 C 3.144531 0.078125 2.570312 -0.0625 2.0625 -0.34375 C 1.5625 -0.625 1.164062 -1.007812 0.875 -1.5 C 0.582031 -1.988281 0.4375 -2.539062 0.4375 -3.15625 C 0.4375 -3.757812 0.582031 -4.304688 0.875 -4.796875 C 1.164062 -5.285156 1.5625 -5.671875 2.0625 -5.953125 C 2.570312 -6.234375 3.144531 -6.375 3.78125 -6.375 C 4.414062 -6.375 4.988281 -6.234375 5.5 -5.953125 C 6.007812 -5.671875 6.40625 -5.285156 6.6875 -4.796875 C 6.976562 -4.304688 7.125 -3.757812 7.125 -3.15625 C 7.125 -2.539062 6.976562 -1.988281 6.6875 -1.5 C 6.40625 -1.007812 6.007812 -0.625 5.5 -0.34375 C 4.988281 -0.0625 4.414062 0.078125 3.78125 0.078125 Z M 3.78125 -0.734375 C 4.25 -0.734375 4.664062 -0.835938 5.03125 -1.046875 C 5.40625 -1.253906 5.695312 -1.539062 5.90625 -1.90625 C 6.125 -2.28125 6.234375 -2.695312 6.234375 -3.15625 C 6.234375 -3.601562 6.125 -4.007812 5.90625 -4.375 C 5.695312 -4.75 5.40625 -5.039062 5.03125 -5.25 C 4.664062 -5.46875 4.25 -5.578125 3.78125 -5.578125 C 3.320312 -5.578125 2.90625 -5.46875 2.53125 -5.25 C 2.15625 -5.039062 1.859375 -4.75 1.640625 -4.375 C 1.429688 -4.007812 1.328125 -3.601562 1.328125 -3.15625 C 1.328125 -2.695312 1.429688 -2.28125 1.640625 -1.90625 C 1.859375 -1.539062 2.15625 -1.253906 2.53125 -1.046875 C 2.90625 -0.835938 3.320312 -0.734375 3.78125 -0.734375 Z M 3.78125 -0.734375 "/></g></g></g><g fill="#ffffff" fill-opacity="1"><g transform="translate(188.438044, 225.077006)"><g><path d="M 3.765625 0.078125 C 3.128906 0.078125 2.554688 -0.0625 2.046875 -0.34375 C 1.546875 -0.625 1.148438 -1.007812 0.859375 -1.5 C 0.578125 -1.988281 0.4375 -2.539062 0.4375 -3.15625 C 0.4375 -3.757812 0.578125 -4.304688 0.859375 -4.796875 C 1.148438 -5.285156 1.550781 -5.671875 2.0625 -5.953125 C 2.570312 -6.234375 3.140625 -6.375 3.765625 -6.375 C 4.265625 -6.375 4.71875 -6.289062 5.125 -6.125 C 5.53125 -5.957031 5.878906 -5.710938 6.171875 -5.390625 L 5.578125 -4.828125 C 5.109375 -5.328125 4.519531 -5.578125 3.8125 -5.578125 C 3.34375 -5.578125 2.914062 -5.46875 2.53125 -5.25 C 2.15625 -5.039062 1.859375 -4.75 1.640625 -4.375 C 1.429688 -4.007812 1.328125 -3.601562 1.328125 -3.15625 C 1.328125 -2.695312 1.429688 -2.28125 1.640625 -1.90625 C 1.859375 -1.539062 2.15625 -1.253906 2.53125 -1.046875 C 2.914062 -0.835938 3.34375 -0.734375 3.8125 -0.734375 C 4.507812 -0.734375 5.097656 -0.984375 5.578125 -1.484375 L 6.171875 -0.921875 C 5.878906 -0.597656 5.523438 -0.347656 5.109375 -0.171875 C 4.703125 -0.00390625 4.253906 0.078125 3.765625 0.078125 Z M 3.765625 0.078125 "/></g></g></g><g fill="#ffffff" fill-opacity="1"><g transform="translate(198.905118, 225.077006)"><g><path d="M 2.203125 -5.515625 L 0.03125 -5.515625 L 0.03125 -6.296875 L 5.25 -6.296875 L 5.25 -5.515625 L 3.09375 -5.515625 L 3.09375 0 L 2.203125 0 Z M 2.203125 -5.515625 "/></g></g></g><g fill="#ffffff" fill-opacity="1"><g transform="translate(208.14819, 225.077006)"><g><path d="M 3.78125 0.078125 C 3.144531 0.078125 2.570312 -0.0625 2.0625 -0.34375 C 1.5625 -0.625 1.164062 -1.007812 0.875 -1.5 C 0.582031 -1.988281 0.4375 -2.539062 0.4375 -3.15625 C 0.4375 -3.757812 0.582031 -4.304688 0.875 -4.796875 C 1.164062 -5.285156 1.5625 -5.671875 2.0625 -5.953125 C 2.570312 -6.234375 3.144531 -6.375 3.78125 -6.375 C 4.414062 -6.375 4.988281 -6.234375 5.5 -5.953125 C 6.007812 -5.671875 6.40625 -5.285156 6.6875 -4.796875 C 6.976562 -4.304688 7.125 -3.757812 7.125 -3.15625 C 7.125 -2.539062 6.976562 -1.988281 6.6875 -1.5 C 6.40625 -1.007812 6.007812 -0.625 5.5 -0.34375 C 4.988281 -0.0625 4.414062 0.078125 3.78125 0.078125 Z M 3.78125 -0.734375 C 4.25 -0.734375 4.664062 -0.835938 5.03125 -1.046875 C 5.40625 -1.253906 5.695312 -1.539062 5.90625 -1.90625 C 6.125 -2.28125 6.234375 -2.695312 6.234375 -3.15625 C 6.234375 -3.601562 6.125 -4.007812 5.90625 -4.375 C 5.695312 -4.75 5.40625 -5.039062 5.03125 -5.25 C 4.664062 -5.46875 4.25 -5.578125 3.78125 -5.578125 C 3.320312 -5.578125 2.90625 -5.46875 2.53125 -5.25 C 2.15625 -5.039062 1.859375 -4.75 1.640625 -4.375 C 1.429688 -4.007812 1.328125 -3.601562 1.328125 -3.15625 C 1.328125 -2.695312 1.429688 -2.28125 1.640625 -1.90625 C 1.859375 -1.539062 2.15625 -1.253906 2.53125 -1.046875 C 2.90625 -0.835938 3.320312 -0.734375 3.78125 -0.734375 Z M 3.78125 -0.734375 "/></g></g></g><g fill="#ffffff" fill-opacity="1"><g transform="translate(219.668282, 225.077006)"><g><path d="M 5.15625 0 L 3.796875 -1.9375 C 3.628906 -1.925781 3.5 -1.921875 3.40625 -1.921875 L 1.84375 -1.921875 L 1.84375 0 L 0.9375 0 L 0.9375 -6.296875 L 3.40625 -6.296875 C 4.21875 -6.296875 4.859375 -6.097656 5.328125 -5.703125 C 5.796875 -5.316406 6.03125 -4.785156 6.03125 -4.109375 C 6.03125 -3.617188 5.910156 -3.203125 5.671875 -2.859375 C 5.429688 -2.515625 5.085938 -2.265625 4.640625 -2.109375 L 6.140625 0 Z M 3.375 -2.6875 C 3.945312 -2.6875 4.378906 -2.804688 4.671875 -3.046875 C 4.972656 -3.296875 5.125 -3.648438 5.125 -4.109375 C 5.125 -4.554688 4.972656 -4.898438 4.671875 -5.140625 C 4.378906 -5.390625 3.945312 -5.515625 3.375 -5.515625 L 1.84375 -5.515625 L 1.84375 -2.6875 Z M 3.375 -2.6875 "/></g></g></g><g fill="#ffffff" fill-opacity="1"><g transform="translate(212.218746, 155.525248)"><g><path d="M 10.9375 -7 L 8.59375 0 L 7.546875 0 L 5.640625 -5.59375 L 3.734375 0 L 2.65625 0 L 0.3125 -7 L 1.34375 -7 L 3.234375 -1.3125 L 5.203125 -7 L 6.125 -7 L 8.0625 -1.28125 L 9.984375 -7 Z M 10.9375 -7 "/></g></g></g><g fill="#ffffff" fill-opacity="1"><g transform="translate(227.874329, 155.525248)"><g><path d="M 6.125 -0.875 L 6.125 0 L 1.046875 0 L 1.046875 -7 L 5.984375 -7 L 5.984375 -6.125 L 2.046875 -6.125 L 2.046875 -3.984375 L 5.5625 -3.984375 L 5.5625 -3.125 L 2.046875 -3.125 L 2.046875 -0.875 Z M 6.125 -0.875 "/></g></g></g><g fill="#ffffff" fill-opacity="1"><g transform="translate(238.971707, 155.525248)"><g><path d="M 1.046875 -7 L 2.046875 -7 L 2.046875 -0.875 L 5.84375 -0.875 L 5.84375 0 L 1.046875 0 Z M 1.046875 -7 "/></g></g></g><g fill="#ffffff" fill-opacity="1"><g transform="translate(249.30938, 155.525248)"><g><path d="M 1.046875 -7 L 2.046875 -7 L 2.046875 -0.875 L 5.84375 -0.875 L 5.84375 0 L 1.046875 0 Z M 1.046875 -7 "/></g></g></g><g fill="#ffffff" fill-opacity="1"><g transform="translate(259.647053, 155.525248)"><g><path d="M 7.0625 -7 L 7.0625 0 L 6.25 0 L 2.046875 -5.21875 L 2.046875 0 L 1.046875 0 L 1.046875 -7 L 1.875 -7 L 6.0625 -1.78125 L 6.0625 -7 Z M 7.0625 -7 "/></g></g></g><g fill="#ffffff" fill-opacity="1"><g transform="translate(272.163879, 155.525248)"><g><path d="M 6.125 -0.875 L 6.125 0 L 1.046875 0 L 1.046875 -7 L 5.984375 -7 L 5.984375 -6.125 L 2.046875 -6.125 L 2.046875 -3.984375 L 5.5625 -3.984375 L 5.5625 -3.125 L 2.046875 -3.125 L 2.046875 -0.875 Z M 6.125 -0.875 "/></g></g></g><g fill="#ffffff" fill-opacity="1"><g transform="translate(283.26126, 155.525248)"><g><path d="M 3.09375 0.078125 C 2.5625 0.078125 2.050781 0 1.5625 -0.15625 C 1.070312 -0.320312 0.6875 -0.535156 0.40625 -0.796875 L 0.78125 -1.578125 C 1.050781 -1.335938 1.394531 -1.140625 1.8125 -0.984375 C 2.226562 -0.835938 2.65625 -0.765625 3.09375 -0.765625 C 3.664062 -0.765625 4.09375 -0.863281 4.375 -1.0625 C 4.664062 -1.257812 4.8125 -1.519531 4.8125 -1.84375 C 4.8125 -2.082031 4.734375 -2.273438 4.578125 -2.421875 C 4.421875 -2.578125 4.226562 -2.695312 4 -2.78125 C 3.769531 -2.863281 3.445312 -2.953125 3.03125 -3.046875 C 2.5 -3.171875 2.070312 -3.296875 1.75 -3.421875 C 1.425781 -3.554688 1.148438 -3.753906 0.921875 -4.015625 C 0.691406 -4.273438 0.578125 -4.628906 0.578125 -5.078125 C 0.578125 -5.453125 0.675781 -5.789062 0.875 -6.09375 C 1.070312 -6.394531 1.367188 -6.632812 1.765625 -6.8125 C 2.171875 -6.988281 2.671875 -7.078125 3.265625 -7.078125 C 3.671875 -7.078125 4.070312 -7.023438 4.46875 -6.921875 C 4.875 -6.816406 5.222656 -6.660156 5.515625 -6.453125 L 5.1875 -5.65625 C 4.882812 -5.84375 4.566406 -5.984375 4.234375 -6.078125 C 3.898438 -6.179688 3.578125 -6.234375 3.265625 -6.234375 C 2.691406 -6.234375 2.265625 -6.128906 1.984375 -5.921875 C 1.703125 -5.710938 1.5625 -5.445312 1.5625 -5.125 C 1.5625 -4.882812 1.640625 -4.6875 1.796875 -4.53125 C 1.960938 -4.382812 2.160156 -4.269531 2.390625 -4.1875 C 2.628906 -4.101562 2.953125 -4.015625 3.359375 -3.921875 C 3.890625 -3.796875 4.3125 -3.664062 4.625 -3.53125 C 4.945312 -3.40625 5.222656 -3.210938 5.453125 -2.953125 C 5.679688 -2.691406 5.796875 -2.34375 5.796875 -1.90625 C 5.796875 -1.539062 5.695312 -1.207031 5.5 -0.90625 C 5.300781 -0.601562 5 -0.363281 4.59375 -0.1875 C 4.1875 -0.0078125 3.6875 0.078125 3.09375 0.078125 Z M 3.09375 0.078125 "/></g></g></g><g fill="#ffffff" fill-opacity="1"><g transform="translate(293.868834, 155.525248)"><g><path d="M 3.09375 0.078125 C 2.5625 0.078125 2.050781 0 1.5625 -0.15625 C 1.070312 -0.320312 0.6875 -0.535156 0.40625 -0.796875 L 0.78125 -1.578125 C 1.050781 -1.335938 1.394531 -1.140625 1.8125 -0.984375 C 2.226562 -0.835938 2.65625 -0.765625 3.09375 -0.765625 C 3.664062 -0.765625 4.09375 -0.863281 4.375 -1.0625 C 4.664062 -1.257812 4.8125 -1.519531 4.8125 -1.84375 C 4.8125 -2.082031 4.734375 -2.273438 4.578125 -2.421875 C 4.421875 -2.578125 4.226562 -2.695312 4 -2.78125 C 3.769531 -2.863281 3.445312 -2.953125 3.03125 -3.046875 C 2.5 -3.171875 2.070312 -3.296875 1.75 -3.421875 C 1.425781 -3.554688 1.148438 -3.753906 0.921875 -4.015625 C 0.691406 -4.273438 0.578125 -4.628906 0.578125 -5.078125 C 0.578125 -5.453125 0.675781 -5.789062 0.875 -6.09375 C 1.070312 -6.394531 1.367188 -6.632812 1.765625 -6.8125 C 2.171875 -6.988281 2.671875 -7.078125 3.265625 -7.078125 C 3.671875 -7.078125 4.070312 -7.023438 4.46875 -6.921875 C 4.875 -6.816406 5.222656 -6.660156 5.515625 -6.453125 L 5.1875 -5.65625 C 4.882812 -5.84375 4.566406 -5.984375 4.234375 -6.078125 C 3.898438 -6.179688 3.578125 -6.234375 3.265625 -6.234375 C 2.691406 -6.234375 2.265625 -6.128906 1.984375 -5.921875 C 1.703125 -5.710938 1.5625 -5.445312 1.5625 -5.125 C 1.5625 -4.882812 1.640625 -4.6875 1.796875 -4.53125 C 1.960938 -4.382812 2.160156 -4.269531 2.390625 -4.1875 C 2.628906 -4.101562 2.953125 -4.015625 3.359375 -3.921875 C 3.890625 -3.796875 4.3125 -3.664062 4.625 -3.53125 C 4.945312 -3.40625 5.222656 -3.210938 5.453125 -2.953125 C 5.679688 -2.691406 5.796875 -2.34375 5.796875 -1.90625 C 5.796875 -1.539062 5.695312 -1.207031 5.5 -0.90625 C 5.300781 -0.601562 5 -0.363281 4.59375 -0.1875 C 4.1875 -0.0078125 3.6875 0.078125 3.09375 0.078125 Z M 3.09375 0.078125 "/></g></g></g></svg>